<?xml version="1.0" standalone="no"?>
<!DOCTYPE svg PUBLIC "-//W3C//DTD SVG 20010904//EN"
 "http://www.w3.org/TR/2001/REC-SVG-20010904/DTD/svg10.dtd">
<svg version="1.0" xmlns="http://www.w3.org/2000/svg"
 width="500.000000pt" height="500.000000pt" viewBox="0 0 500.000000 500.000000"
 preserveAspectRatio="xMidYMid meet">

<g transform="translate(0.000000,500.000000) scale(0.100000,-0.100000)"
fill="#ffffff" stroke="none">
<path d="M2466 4425 c-3 -9 -6 -101 -6 -205 0 -202 3 -215 52 -208 l23 3 0
210 0 210 -31 3 c-22 2 -33 -2 -38 -13z"/>
<path d="M1130 4020 c0 -99 -3 -180 -8 -180 -4 0 -45 22 -92 50 -47 27 -88 50
-92 50 -5 0 -8 -50 -8 -111 l0 -111 -80 -88 -80 -88 0 -1394 0 -1395 374 -7
c206 -3 500 -3 653 0 l278 7 35 -48 c45 -60 135 -128 208 -155 72 -28 217 -38
293 -20 95 22 184 76 252 153 l62 69 255 -7 c140 -3 423 -3 628 1 l372 7 0 38
0 39 -637 0 c-351 0 -643 -4 -648 -8 -6 -4 -19 -25 -30 -46 -30 -59 -113 -139
-175 -169 -207 -100 -467 -18 -571 178 l-24 45 -622 0 -623 0 0 1341 0 1342
38 49 37 49 5 -1348 5 -1348 540 -6 c361 -3 552 -9 575 -16 19 -7 54 -17 77
-23 35 -9 43 -16 53 -44 18 -56 85 -122 158 -158 60 -29 76 -33 157 -33 76 0
99 4 146 27 76 35 133 89 163 152 l25 53 83 19 c76 17 128 19 640 19 l558 0 0
247 0 247 -32 38 c-18 21 -120 135 -227 253 -107 118 -208 231 -225 250 -39
45 -144 162 -337 375 -85 94 -192 212 -238 264 l-83 93 58 60 c33 33 290 291
571 572 l513 512 0 192 0 192 -432 0 c-238 0 -464 -5 -503 -10 -257 -37 -428
-145 -569 -359 -35 -53 -108 -163 -162 -246 l-99 -150 -5 185 c-5 180 -6 187
-36 250 -35 75 -122 174 -193 219 -72 46 -194 87 -296 100 -49 6 -224 11 -387
11 l-298 0 0 -180z m711 -94 c93 -17 134 -37 159 -79 19 -31 20 -58 20 -1094
l0 -1062 -47 20 c-76 33 -161 49 -258 49 -131 0 -214 -24 -377 -108 -5 -2 -8
512 -8 1142 l0 1146 218 0 c137 -1 245 -6 293 -14z m1594 -308 c-176 -177
-336 -338 -355 -358 -19 -20 -151 -153 -293 -296 l-257 -260 47 -55 c27 -31
174 -196 328 -368 154 -172 297 -334 318 -359 22 -26 58 -67 80 -92 23 -25 51
-56 62 -69 l20 -23 -31 6 c-66 15 -228 8 -305 -13 -75 -19 -208 -79 -240 -108
-15 -12 -21 -7 -58 51 -22 36 -41 69 -41 73 0 7 144 101 258 170 30 18 29 51
-2 59 -33 8 -154 -57 -259 -139 -32 -25 -41 -28 -48 -16 -5 8 -25 39 -43 69
-19 30 -87 133 -150 229 -116 174 -116 175 -116 235 l-1 61 -67 -70 c-37 -39
-88 -95 -114 -125 l-48 -55 1 450 0 450 75 80 c41 44 141 156 222 250 261 302
372 398 538 469 149 64 220 74 529 75 l269 1 -319 -322z m-2337 117 c3 -24 1
-25 -42 -25 l-46 0 0 51 0 50 43 -25 c29 -18 43 -33 45 -51z m0 -142 l3 -53
-44 0 -44 0 -6 47 c-3 27 -3 51 -1 55 3 4 24 7 47 5 l42 -2 3 -52z m-3 -167
l0 -48 -38 -3 c-20 -1 -41 3 -45 9 -6 9 -8 57 -3 88 0 4 20 6 44 5 l42 -3 0
-48z m3 -167 l0 -49 -42 0 c-24 0 -45 2 -47 4 -2 3 -3 25 -1 49 l4 45 43 0 44
0 -1 -49z m0 -172 l-3 -52 -40 0 c-39 0 -40 1 -47 44 -4 24 -5 47 -3 52 3 4
26 7 51 7 l45 0 -3 -51z m-47 -129 c0 -10 2 -10 6 0 2 6 13 12 24 12 16 0 19
-7 19 -51 l0 -50 -46 3 -46 3 -3 40 c-1 22 -1 43 2 48 7 12 43 8 44 -5z m47
-208 l0 -48 -44 0 -44 0 0 48 0 48 44 0 44 0 0 -48z m-47 -132 c0 -10 2 -10 6
0 2 6 13 12 23 12 15 0 18 -9 18 -51 0 -51 0 -51 -29 -45 -16 3 -29 1 -29 -4
0 -6 -7 -10 -15 -10 -12 0 -15 13 -15 55 0 48 2 55 20 55 11 0 20 -6 21 -12z
m-1 -167 c0 -4 11 -6 25 -4 23 5 24 3 21 -43 -4 -60 -2 -57 -25 -44 -13 7 -22
7 -26 0 -16 -25 -33 -8 -37 38 -3 26 -3 50 -1 55 6 10 43 9 43 -2z m0 -185 c0
-8 7 -17 16 -20 12 -4 14 -1 9 14 -4 11 -2 20 4 20 14 0 14 -47 1 -55 -5 -3
-10 -11 -10 -16 0 -6 5 -7 10 -4 6 3 10 0 10 -7 0 -8 -15 -14 -40 -15 l-40 -1
0 49 c0 42 3 49 20 49 11 0 20 -6 20 -14z m1355 -213 c29 -53 29 -53 10 -53
-8 0 -15 -7 -15 -15 0 -19 32 -33 38 -16 3 9 7 9 18 0 12 -10 12 -13 -3 -24
-25 -19 -9 -49 22 -41 24 6 37 -8 14 -16 -17 -6 2 -38 23 -38 10 0 18 -6 17
-12 -3 -27 2 -37 21 -43 11 -3 20 -13 20 -21 0 -8 6 -17 14 -20 8 -3 38 -44
67 -92 66 -110 66 -110 42 -89 -11 9 -25 17 -31 17 -21 0 -23 -20 -3 -36 15
-14 18 -22 10 -36 -6 -10 -18 -17 -27 -16 -12 2 -18 -5 -20 -24 -3 -26 -22
-41 -22 -18 0 13 -27 13 -35 -1 -4 -5 0 -18 8 -27 18 -19 6 -52 -18 -52 -9 0
-15 -10 -15 -25 0 -22 -3 -25 -24 -19 -28 7 -43 -11 -26 -31 13 -16 6 -65 -10
-65 -6 0 -10 -9 -10 -21 0 -16 -4 -19 -22 -13 -13 3 -23 7 -23 8 0 0 -11 22
-23 47 -27 56 -27 58 -3 52 26 -7 37 16 17 35 -16 16 -18 16 -30 -1 -12 -15
-14 -16 -20 -2 -3 8 -1 15 4 15 16 0 11 40 -5 46 -18 7 -20 66 -4 97 9 16 9
22 0 25 -6 2 -11 17 -11 33 0 17 4 28 9 25 5 -3 14 1 21 9 9 11 7 16 -9 27
-13 8 -21 23 -21 39 0 23 3 26 26 21 21 -4 25 -1 22 14 -2 12 -12 19 -26 18
-17 0 -21 4 -17 16 3 10 1 29 -4 43 -8 20 -7 30 4 41 17 17 20 42 5 51 -5 3
-10 17 -10 31 0 14 4 23 9 20 12 -8 34 21 26 34 -3 5 -13 10 -21 10 -9 0 -14
11 -14 36 0 32 2 35 15 24 11 -9 19 -10 27 -2 14 14 1 32 -23 32 -15 0 -19 7
-19 36 0 31 2 35 15 24 8 -6 26 -32 40 -57z m-1349 31 c22 -15 24 -15 18 0 -3
9 -2 16 3 16 5 0 10 -22 11 -50 1 -52 -4 -59 -27 -37 -11 10 -14 10 -18 0 -3
-7 -11 -13 -19 -13 -17 0 -19 36 -1 44 10 5 10 7 0 12 -16 7 -17 44 -3 44 6 0
22 -7 36 -16z m-16 -169 c0 -18 21 -20 38 -3 9 9 12 2 12 -34 l0 -45 -40 0
-40 0 0 48 c0 37 4 49 15 49 8 0 15 -7 15 -15z m0 -175 c0 -5 8 -10 19 -10 11
0 21 -9 25 -22 11 -41 7 -50 -15 -43 -13 4 -25 2 -29 -5 -4 -7 -13 -9 -19 -6
-15 10 -14 36 1 36 9 0 9 3 0 12 -17 17 -15 48 3 48 8 0 15 -4 15 -10z m861
-90 c134 -45 251 -137 337 -265 72 -109 109 -201 49 -121 -39 51 -170 152
-247 191 -130 65 -191 80 -330 79 -107 0 -135 -4 -197 -26 -99 -35 -185 -85
-271 -158 -81 -68 -80 -71 -33 58 25 68 31 75 96 123 101 74 208 124 305 143
57 11 228 -3 291 -24z m1410 20 c48 -6 115 -19 150 -30 55 -18 70 -28 107 -75
23 -29 42 -56 42 -59 0 -3 -12 -1 -27 5 -102 39 -344 52 -453 24 -176 -44
-311 -124 -441 -263 -63 -66 -144 -179 -170 -234 -22 -49 -28 -30 -9 30 52
171 114 276 230 393 121 123 254 190 410 209 36 4 67 8 70 9 3 0 44 -4 91 -9z
m-2262 -115 c16 -8 31 -22 35 -30 8 -23 7 -52 -2 -40 -10 14 -42 18 -42 5 0
-5 -6 -10 -13 -10 -9 0 -14 14 -14 45 0 25 2 45 4 45 2 0 17 -7 32 -15z m2485
-114 c37 -13 97 -36 133 -53 59 -29 70 -39 124 -119 32 -49 59 -91 59 -94 0
-3 -35 12 -77 33 -99 50 -190 78 -275 87 -37 4 -66 10 -64 14 5 8 -260 4 -311
-4 -109 -18 -379 -131 -436 -182 -9 -9 -19 -14 -22 -11 -3 3 50 59 117 124
136 132 212 180 340 214 102 28 312 23 412 -9z m-1788 1 c-3 -3 -1 -11 5 -18
9 -11 15 -10 35 3 24 15 25 15 31 -5 6 -25 15 -27 42 -10 15 9 23 9 37 -2 9
-8 27 -13 40 -12 14 2 28 -4 35 -16 7 -11 18 -18 26 -15 7 3 32 -6 56 -20 48
-29 223 -185 259 -232 l23 -30 -30 20 c-87 57 -231 129 -315 157 -94 32 -97
33 -285 32 -172 0 -199 -3 -286 -26 -52 -14 -123 -40 -157 -57 -34 -17 -65
-31 -69 -31 -12 0 69 80 128 125 64 49 105 73 95 56 -4 -6 -2 -11 3 -11 6 0
11 6 11 14 0 18 26 28 54 20 18 -4 25 -1 29 15 5 21 37 30 37 11 0 -16 19 -11
37 10 18 21 63 28 63 9 0 -5 4 -7 10 -4 12 7 51 -12 47 -24 -2 -9 2 -11 28
-11 9 0 12 6 9 15 -4 8 -15 15 -25 15 -10 0 -19 6 -19 14 0 8 11 14 25 14 14
0 23 -3 21 -6z m-706 -57 c7 -9 19 -14 26 -11 13 5 27 -31 18 -46 -3 -5 -14
-6 -25 -3 -11 4 -19 2 -19 -4 0 -6 -7 -11 -15 -11 -8 0 -15 7 -15 15 0 8 5 15
12 15 9 0 9 3 0 12 -14 14 -16 48 -3 48 5 0 14 -7 21 -15z m823 -140 c75 -13
223 -63 214 -71 -3 -3 -38 4 -78 16 -116 32 -286 45 -415 31 -207 -23 -196
-23 -129 0 120 40 270 49 408 24z m1557 1 c41 -8 86 -19 100 -25 21 -10 18
-11 -25 -6 -251 24 -420 10 -611 -51 -18 -5 -18 -5 -1 9 22 19 165 65 232 76
79 13 223 12 305 -3z m-1425 -100 c82 -22 233 -84 175 -71 -14 3 -61 14 -105
24 -138 33 -283 45 -453 38 -86 -4 -175 -10 -196 -13 -26 -5 -37 -4 -33 3 6 9
73 27 177 47 14 2 97 3 185 1 133 -3 175 -8 250 -29z m1520 9 c85 -18 132 -43
60 -31 -22 3 -114 9 -205 12 -178 7 -338 -8 -495 -45 -44 -11 -81 -18 -83 -16
-8 8 156 66 239 84 117 26 357 24 484 -4z m-1510 -85 c126 -25 226 -61 352
-127 122 -65 149 -64 291 10 211 109 355 141 627 141 188 -1 322 -17 445 -52
l65 -19 -335 -5 c-357 -6 -419 -12 -610 -65 -53 -15 -108 -37 -124 -50 -58
-48 -128 -76 -202 -81 -88 -6 -150 13 -226 68 -39 27 -82 46 -153 65 -184 50
-240 56 -595 62 -305 5 -331 7 -290 19 47 15 235 50 305 58 94 10 342 -3 450
-24z m-910 -20 c-16 -11 -34 -20 -40 -20 -5 0 4 9 20 20 17 11 35 20 40 20 6
0 -3 -9 -20 -20z m2831 -6 c18 -14 18 -14 -6 -3 -31 14 -36 19 -24 19 6 0 19
-7 30 -16z"/>
<path d="M1612 3788 c-26 -26 1 -65 38 -53 16 5 20 14 18 33 -3 30 -35 41 -56
20z"/>
<path d="M1727 3713 c-12 -12 -7 -50 8 -63 17 -14 51 -5 59 16 13 35 -41 73
-67 47z"/>
<path d="M1474 3655 c-7 -29 10 -55 36 -55 24 0 42 24 38 52 -2 18 -10 24 -35
26 -28 3 -33 -1 -39 -23z"/>
<path d="M1543 3439 l-73 -21 0 -784 0 -783 58 21 c85 30 227 35 320 10 51
-13 75 -15 78 -8 2 6 3 357 2 781 l-3 770 -40 14 c-22 7 -92 15 -155 17 -94 3
-128 0 -187 -17z m266 -65 l31 -6 0 -697 0 -696 -140 0 -140 0 0 692 0 692 33
10 c37 11 170 14 216 5z"/>
<path d="M1674 2145 c-8 -20 4 -35 26 -35 23 0 32 13 24 34 -8 20 -43 21 -50
1z"/>
<path d="M2911 3485 c-34 -39 -40 -69 -15 -79 22 -8 49 8 80 49 26 35 26 36 8
50 -28 21 -39 18 -73 -20z"/>
<path d="M2537 3078 c-178 -183 -217 -228 -215 -248 2 -19 10 -26 29 -28 23
-3 57 28 240 218 118 121 215 227 217 236 5 19 -16 44 -37 44 -9 0 -114 -100
-234 -222z"/>
<path d="M2619 2272 c-40 -28 -54 -44 -54 -62 0 -37 34 -37 94 0 62 39 78 62
55 84 -22 23 -34 20 -95 -22z"/>
<path d="M2737 2108 c-57 -36 -67 -47 -65 -68 5 -38 38 -36 107 7 64 40 81 64
61 88 -18 22 -30 19 -103 -27z"/>
<path d="M1020 2215 c0 -8 4 -15 10 -15 5 0 7 7 4 15 -4 8 -8 15 -10 15 -2 0
-4 -7 -4 -15z"/>
<path d="M2384 1899 c-10 -17 23 -46 38 -31 8 8 8 15 -2 27 -15 18 -26 19 -36
4z"/>
<path d="M2425 1850 c-7 -12 12 -40 27 -40 16 0 21 32 7 41 -18 12 -26 11 -34
-1z"/>
<path d="M2374 1805 c-3 -8 -3 -19 1 -25 11 -17 35 -11 35 9 0 23 -29 36 -36
16z"/>
<path d="M2467 1793 c-4 -3 0 -15 9 -25 13 -14 20 -15 31 -7 10 9 10 15 2 25
-12 15 -31 18 -42 7z"/>
<path d="M2413 1754 c-3 -8 1 -22 9 -30 13 -13 16 -13 28 0 10 13 10 19 0 31
-16 19 -29 19 -37 -1z"/>
<path d="M2514 1739 c-10 -17 23 -46 37 -32 7 7 9 19 6 27 -7 18 -33 21 -43 5z"/>
<path d="M2454 1699 c-3 -6 1 -18 9 -27 13 -13 19 -13 32 -2 12 10 13 16 4 26
-14 17 -35 18 -45 3z"/>
<path d="M2564 1686 c-7 -19 3 -36 22 -36 10 0 14 8 12 22 -4 26 -26 36 -34
14z"/>
<path d="M2396 1661 c-3 -4 3 -16 13 -25 21 -19 37 -7 27 19 -6 16 -32 20 -40
6z"/>
<path d="M2497 1647 c-6 -17 11 -37 31 -37 19 0 11 44 -9 48 -9 2 -19 -3 -22
-11z"/>
<path d="M2604 1635 c-9 -24 22 -53 38 -37 9 9 10 17 2 29 -15 24 -33 27 -40
8z"/>
<path d="M2443 1604 c-8 -21 13 -42 28 -27 13 13 5 43 -11 43 -6 0 -13 -7 -17
-16z"/>
<path d="M2544 1595 c-7 -18 3 -35 21 -35 21 0 28 19 15 35 -16 19 -29 19 -36
0z"/>
<path d="M2384 1577 c-7 -20 3 -37 22 -37 18 0 18 24 -1 40 -12 10 -16 9 -21
-3z"/>
<path d="M2480 1551 c0 -23 25 -34 39 -17 7 9 7 16 -1 24 -18 18 -38 14 -38
-7z"/>
<path d="M2584 1549 c-10 -17 23 -46 38 -31 8 8 8 15 -2 27 -15 18 -26 19 -36
4z"/>
<path d="M2416 1521 c-3 -4 3 -16 13 -25 21 -19 37 -7 27 19 -6 16 -32 20 -40
6z"/>
<path d="M2524 1509 c-3 -6 1 -18 10 -27 15 -15 18 -15 26 -2 5 9 5 19 -2 27
-13 16 -25 17 -34 2z"/>
<path d="M2360 1476 c0 -17 24 -38 33 -29 15 15 6 43 -13 43 -11 0 -20 -6 -20
-14z"/>
<path d="M2467 1473 c-21 -21 7 -49 33 -33 11 7 11 11 1 24 -15 17 -24 20 -34
9z"/>
<path d="M2401 1437 c-8 -11 -6 -18 8 -31 15 -14 20 -14 30 -2 9 11 8 17 -4
30 -20 19 -20 19 -34 3z"/>
<path d="M2505 1420 c-4 -6 -1 -17 5 -26 15 -18 42 0 33 22 -6 16 -29 19 -38
4z"/>
<path d="M2444 1379 c-3 -6 0 -17 8 -25 13 -13 16 -13 27 0 7 8 10 20 6 26 -8
13 -32 13 -41 -1z"/>
<path d="M2425 1290 c-8 -14 13 -40 32 -40 20 0 12 44 -9 48 -9 2 -19 -2 -23
-8z"/>
<path d="M1020 1866 c0 -9 7 -16 16 -16 17 0 14 22 -4 28 -7 2 -12 -3 -12 -12z"/>
<path d="M3070 1370 c-8 -5 -7 -9 5 -14 26 -10 50 -7 79 8 26 13 26 14 -22 14
-27 0 -55 -4 -62 -8z m47 -6 c-3 -3 -12 -4 -19 -1 -8 3 -5 6 6 6 11 1 17 -2
13 -5z"/>
<path d="M3220 1371 l25 -8 -25 -6 c-21 -4 104 -1 135 4 22 3 -73 18 -115 17
-36 0 -40 -2 -20 -7z"/>
<path d="M3007 1363 c-15 -2 -25 -8 -22 -13 3 -4 14 -6 25 -3 12 3 20 1 18 -5
-4 -14 16 -16 20 -3 2 6 -1 11 -8 11 -6 0 -8 5 -5 10 3 6 5 9 3 9 -2 -1 -15
-4 -31 -6z"/>
<path d="M3380 1356 c0 -2 13 -6 29 -8 17 -2 28 -1 25 4 -5 8 -54 12 -54 4z"/>
<path d="M3150 1341 c0 -16 32 -20 80 -11 l45 9 -47 -3 c-27 -2 -48 0 -48 5 0
5 -7 9 -15 9 -8 0 -15 -4 -15 -9z"/>
<path d="M3460 1340 c8 -5 20 -10 25 -10 6 0 3 5 -5 10 -8 5 -19 10 -25 10 -5
0 -3 -5 5 -10z"/>
<path d="M3116 1327 c3 -10 9 -15 12 -12 3 3 0 11 -7 18 -10 9 -11 8 -5 -6z"/>
<path d="M3358 1323 c7 -3 16 -2 19 1 4 3 -2 6 -13 5 -11 0 -14 -3 -6 -6z"/>
<path d="M2835 1271 c-3 -5 -2 -12 3 -15 5 -3 9 1 9 9 0 17 -3 19 -12 6z"/>
<path d="M2785 1229 c-4 -6 -5 -12 -2 -15 2 -3 7 2 10 11 7 17 1 20 -8 4z"/>
<path d="M1630 1410 c0 -5 5 -10 11 -10 5 0 7 5 4 10 -3 6 -8 10 -11 10 -2 0
-4 -4 -4 -10z"/>
<path d="M1790 1386 c0 -9 5 -16 10 -16 6 0 10 4 10 9 0 6 -4 13 -10 16 -5 3
-10 -1 -10 -9z"/>
<path d="M2310 4175 c-18 -22 -1 -50 31 -50 20 0 24 5 24 30 0 23 -5 31 -21
33 -11 2 -27 -4 -34 -13z"/>
<path d="M2644 4176 c-11 -28 1 -51 25 -51 32 0 49 28 32 49 -17 20 -50 21
-57 2z"/>
<path d="M924 4136 c-11 -28 1 -51 25 -51 32 0 49 28 32 49 -17 20 -50 21 -57
2z"/>
<path d="M786 4004 c-8 -20 10 -54 29 -54 26 0 46 29 35 51 -13 23 -55 25 -64
3z"/>
<path d="M3941 3516 c-9 -11 -8 -15 5 -20 23 -9 38 8 21 23 -11 9 -17 8 -26
-3z"/>
<path d="M3915 3370 c-4 -7 -13 -38 -19 -69 l-11 -56 -64 -13 c-36 -7 -67 -14
-69 -17 -11 -11 12 -23 55 -30 68 -10 80 -19 88 -67 10 -65 15 -78 30 -78 15
0 20 13 30 78 7 46 19 56 85 67 38 6 68 21 59 29 -3 3 -34 11 -69 18 l-64 13
-12 58 c-12 63 -27 87 -39 67z"/>
<path d="M4054 3355 c3 -22 32 -33 47 -18 16 16 -1 43 -27 41 -17 -2 -22 -7
-20 -23z"/>
<path d="M4059 3069 c-9 -17 -8 -23 2 -30 32 -20 64 2 48 33 -13 24 -36 23
-50 -3z"/>
<path d="M3533 3069 c-13 -13 -6 -39 9 -39 5 0 6 6 2 13 -5 8 -2 8 9 -2 14
-11 20 -11 34 0 11 10 14 10 9 2 -11 -19 187 -18 203 0 8 10 7 17 -1 25 -16
16 -250 16 -265 1z"/>
<path d="M3321 2906 c-8 -10 -7 -17 4 -26 13 -11 19 -11 32 2 14 15 13 17 -5
27 -15 8 -23 7 -31 -3z"/>
<path d="M3524 2905 c-4 -8 -4 -22 0 -30 5 -13 50 -15 324 -15 335 0 352 2
336 44 -5 14 -40 16 -330 16 -279 0 -325 -2 -330 -15z"/>
<path d="M3198 2752 c-10 -2 -18 -12 -18 -22 0 -18 11 -19 190 -19 153 0 190
3 190 13 0 8 -8 17 -17 21 -18 8 -313 14 -345 7z"/>
<path d="M3681 2746 c-6 -7 -9 -21 -5 -30 5 -14 34 -16 254 -16 220 0 249 2
254 16 15 40 -6 44 -254 44 -189 0 -240 -3 -249 -14z"/>
<path d="M3236 2587 c-13 -10 -16 -20 -12 -35 l7 -22 471 2 c442 3 472 4 482
21 9 15 7 21 -8 33 -28 20 -912 21 -940 1z"/>
<path d="M3371 2416 c-6 -7 -9 -21 -5 -30 6 -14 46 -16 410 -16 352 0 405 2
410 15 4 8 1 22 -6 30 -18 21 -791 23 -809 1z"/>
<path d="M3523 2245 c-23 -17 -4 -42 24 -30 10 5 21 8 25 7 13 -3 -3 26 -17
32 -7 2 -21 -2 -32 -9z"/>
<path d="M3721 2246 c-38 -46 36 -60 288 -55 169 4 197 12 175 47 -10 15 -36
17 -231 20 -178 2 -222 0 -232 -12z"/>
<path d="M3702 2077 c-9 -10 -8 -18 2 -32 18 -25 48 -13 44 17 -4 27 -30 35
-46 15z"/>
<path d="M3903 2035 c-17 -12 -23 -26 -23 -54 0 -45 16 -62 59 -63 84 -3 98
112 16 127 -19 4 -38 0 -52 -10z"/>
<path d="M3924 1773 c2 -25 26 -39 37 -22 15 24 10 39 -15 39 -17 0 -23 -5
-22 -17z"/>
<path d="M4077 1662 c-23 -5 -18 -36 6 -40 19 -4 35 25 21 37 -5 4 -17 6 -27
3z"/>
</g>
</svg>
